<svg xmlns="http://www.w3.org/2000/svg" viewBox="0 0 800 600" width="100%" height="100%">
  <defs>
    <linearGradient id="eduGrad" x1="0%" y1="0%" x2="100%" y2="100%">
      <stop offset="0%" style="stop-color: #42a5f5; stop-opacity: 1" />
      <stop offset="100%" style="stop-color: #478ed1; stop-opacity: 1" />
    </linearGradient>
  </defs>
  <rect width="800" height="600" fill="url(#eduGrad)" />
  
  <!-- Open Book -->
  <path d="M200 400 Q220 350, 300 350 Q380 350, 400 400 L400 500 Q380 450, 300 450 Q220 450, 200 500 Z" 
        fill="#fff" stroke="#3e8ed0" stroke-width="3" />
  <path d="M400 400 Q420 350, 500 350 Q580 350, 600 400 L600 500 Q580 450, 500 450 Q420 450, 400 500 Z" 
        fill="#e3f2fd" stroke="#3e8ed0" stroke-width="3" />
  
  <!-- Graduation Cap -->
  <polygon points="400,200 500,250 400,300 300,250" fill="#3949ab" />
  <line x1="400" y1="200" x2="400" y2="350" stroke="#3949ab" stroke-width="5" />
  <circle cx="400" cy="350" r="5" fill="#3949ab" />

  <!-- Globe -->
  <circle cx="650" cy="150" r="80" fill="#3f51b5" />
  <path d="M570 150 A80 80 0 1 1 730 150 A80 80 0 1 1 570 150 Z" 
        stroke="#fff" stroke-width="3" fill="none" />
  <path d="M650 70 A80 80 0 0 1 650 230 A80 80 0 0 1 650 70 Z" 
        stroke="#fff" stroke-width="3" fill="none" />

  <!-- Stars for decoration -->
  <circle cx="150" cy="100" r="5" fill="#fff" />
  <circle cx="100" cy="200" r="4" fill="#fff" />
  <circle cx="50" cy="50" r="3" fill="#fff" />
  <circle cx="700" cy="500" r="5" fill="#fff" />
  <circle cx="750" cy="550" r="4" fill="#fff" />
</svg>
